<mxfile host="www.draw.io" modified="2023-04-04T07:27:28.686Z" agent="Mozilla/5.0 (Windows NT 10.0; Win64; x64; rv:109.0) Gecko/20100101 Firefox/111.0" etag="SbXXRFNDdQAT4c2wC3de" version="21.1.4" type="device" pages="6">
  <diagram name="Страница 1" id="l37Yn6xzPz23cXKT6ZtV">
    <mxGraphModel dx="1434" dy="782" grid="1" gridSize="10" guides="1" tooltips="1" connect="1" arrows="1" fold="1" page="1" pageScale="1" pageWidth="827" pageHeight="1169" math="0" shadow="0">
      <root>
        <mxCell id="0" />
        <mxCell id="1" parent="0" />
        <mxCell id="HSLDqUK3e6nMM5qemfnW-1" value="void check_for_blank(int&amp;amp; counter_for_blank,int&amp;amp; counter_for_other,const string word)" style="text;html=1;align=center;verticalAlign=middle;resizable=0;points=[];autosize=1;strokeColor=none;fillColor=none;" vertex="1" parent="1">
          <mxGeometry y="110" width="490" height="30" as="geometry" />
        </mxCell>
        <mxCell id="HSLDqUK3e6nMM5qemfnW-4" style="edgeStyle=orthogonalEdgeStyle;rounded=0;orthogonalLoop=1;jettySize=auto;html=1;exitX=0.5;exitY=1;exitDx=0;exitDy=0;entryX=0.5;entryY=0;entryDx=0;entryDy=0;" edge="1" parent="1" source="HSLDqUK3e6nMM5qemfnW-2" target="HSLDqUK3e6nMM5qemfnW-3">
          <mxGeometry relative="1" as="geometry" />
        </mxCell>
        <mxCell id="HSLDqUK3e6nMM5qemfnW-2" value="Начало" style="ellipse;whiteSpace=wrap;html=1;" vertex="1" parent="1">
          <mxGeometry x="354" y="160" width="120" height="80" as="geometry" />
        </mxCell>
        <mxCell id="HSLDqUK3e6nMM5qemfnW-6" style="edgeStyle=orthogonalEdgeStyle;rounded=0;orthogonalLoop=1;jettySize=auto;html=1;exitX=0.5;exitY=1;exitDx=0;exitDy=0;entryX=0.5;entryY=0;entryDx=0;entryDy=0;" edge="1" parent="1" source="HSLDqUK3e6nMM5qemfnW-3" target="HSLDqUK3e6nMM5qemfnW-5">
          <mxGeometry relative="1" as="geometry" />
        </mxCell>
        <mxCell id="HSLDqUK3e6nMM5qemfnW-14" style="edgeStyle=orthogonalEdgeStyle;rounded=0;orthogonalLoop=1;jettySize=auto;html=1;exitX=1;exitY=0.5;exitDx=0;exitDy=0;startArrow=classic;startFill=1;endArrow=none;endFill=0;" edge="1" parent="1" source="HSLDqUK3e6nMM5qemfnW-3">
          <mxGeometry relative="1" as="geometry">
            <mxPoint x="429.9999999999998" y="750" as="targetPoint" />
            <Array as="points">
              <mxPoint x="640" y="340" />
              <mxPoint x="640" y="750" />
            </Array>
          </mxGeometry>
        </mxCell>
        <mxCell id="HSLDqUK3e6nMM5qemfnW-18" style="edgeStyle=orthogonalEdgeStyle;rounded=0;orthogonalLoop=1;jettySize=auto;html=1;exitX=0;exitY=0.5;exitDx=0;exitDy=0;entryX=0.5;entryY=0;entryDx=0;entryDy=0;" edge="1" parent="1" source="HSLDqUK3e6nMM5qemfnW-3" target="HSLDqUK3e6nMM5qemfnW-17">
          <mxGeometry relative="1" as="geometry" />
        </mxCell>
        <mxCell id="HSLDqUK3e6nMM5qemfnW-3" value="const auto&amp;amp; h: word" style="shape=hexagon;perimeter=hexagonPerimeter2;whiteSpace=wrap;html=1;fixedSize=1;" vertex="1" parent="1">
          <mxGeometry x="354" y="300" width="120" height="80" as="geometry" />
        </mxCell>
        <mxCell id="HSLDqUK3e6nMM5qemfnW-10" style="edgeStyle=orthogonalEdgeStyle;rounded=0;orthogonalLoop=1;jettySize=auto;html=1;exitX=0;exitY=0.5;exitDx=0;exitDy=0;entryX=0.442;entryY=0.033;entryDx=0;entryDy=0;entryPerimeter=0;" edge="1" parent="1" source="HSLDqUK3e6nMM5qemfnW-5" target="HSLDqUK3e6nMM5qemfnW-8">
          <mxGeometry relative="1" as="geometry" />
        </mxCell>
        <mxCell id="HSLDqUK3e6nMM5qemfnW-11" style="edgeStyle=orthogonalEdgeStyle;rounded=0;orthogonalLoop=1;jettySize=auto;html=1;exitX=1;exitY=0.5;exitDx=0;exitDy=0;" edge="1" parent="1" source="HSLDqUK3e6nMM5qemfnW-5" target="HSLDqUK3e6nMM5qemfnW-9">
          <mxGeometry relative="1" as="geometry" />
        </mxCell>
        <mxCell id="HSLDqUK3e6nMM5qemfnW-5" value="isspace(h) || iscntrl(h)" style="rhombus;whiteSpace=wrap;html=1;" vertex="1" parent="1">
          <mxGeometry x="356" y="440" width="116" height="80" as="geometry" />
        </mxCell>
        <mxCell id="HSLDqUK3e6nMM5qemfnW-12" style="edgeStyle=orthogonalEdgeStyle;rounded=0;orthogonalLoop=1;jettySize=auto;html=1;exitX=0.5;exitY=1;exitDx=0;exitDy=0;endArrow=none;endFill=0;" edge="1" parent="1" source="HSLDqUK3e6nMM5qemfnW-8">
          <mxGeometry relative="1" as="geometry">
            <mxPoint x="429.9999999999998" y="750" as="targetPoint" />
          </mxGeometry>
        </mxCell>
        <mxCell id="HSLDqUK3e6nMM5qemfnW-8" value="counter_for_blank++" style="rounded=0;whiteSpace=wrap;html=1;" vertex="1" parent="1">
          <mxGeometry x="236" y="560" width="120" height="60" as="geometry" />
        </mxCell>
        <mxCell id="HSLDqUK3e6nMM5qemfnW-13" style="edgeStyle=orthogonalEdgeStyle;rounded=0;orthogonalLoop=1;jettySize=auto;html=1;exitX=0.5;exitY=1;exitDx=0;exitDy=0;endArrow=none;endFill=0;" edge="1" parent="1" source="HSLDqUK3e6nMM5qemfnW-9">
          <mxGeometry relative="1" as="geometry">
            <mxPoint x="429.9999999999998" y="750" as="targetPoint" />
          </mxGeometry>
        </mxCell>
        <mxCell id="HSLDqUK3e6nMM5qemfnW-9" value="counter_for_other++" style="rounded=0;whiteSpace=wrap;html=1;" vertex="1" parent="1">
          <mxGeometry x="490" y="560" width="120" height="60" as="geometry" />
        </mxCell>
        <mxCell id="HSLDqUK3e6nMM5qemfnW-15" value="+" style="text;html=1;align=center;verticalAlign=middle;resizable=0;points=[];autosize=1;strokeColor=none;fillColor=none;" vertex="1" parent="1">
          <mxGeometry x="350" y="435" width="30" height="30" as="geometry" />
        </mxCell>
        <mxCell id="HSLDqUK3e6nMM5qemfnW-16" value="-" style="text;html=1;align=center;verticalAlign=middle;resizable=0;points=[];autosize=1;strokeColor=none;fillColor=none;" vertex="1" parent="1">
          <mxGeometry x="444" y="435" width="30" height="30" as="geometry" />
        </mxCell>
        <mxCell id="HSLDqUK3e6nMM5qemfnW-17" value="Конец" style="ellipse;whiteSpace=wrap;html=1;" vertex="1" parent="1">
          <mxGeometry x="60" y="370" width="120" height="80" as="geometry" />
        </mxCell>
      </root>
    </mxGraphModel>
  </diagram>
  <diagram id="0sor6EkgT_q4NuzIdgL4" name="Страница 2">
    <mxGraphModel dx="1687" dy="920" grid="1" gridSize="10" guides="1" tooltips="1" connect="1" arrows="1" fold="1" page="1" pageScale="1" pageWidth="827" pageHeight="1169" math="0" shadow="0">
      <root>
        <mxCell id="0" />
        <mxCell id="1" parent="0" />
        <mxCell id="rxYL-eJ43rA7LrPXwkPJ-1" value="void check_for_sub(vector&amp;lt;string&amp;gt;&amp;amp; arr,const string&amp;amp; words,const string&amp;amp; find_word)" style="text;html=1;align=center;verticalAlign=middle;resizable=0;points=[];autosize=1;strokeColor=none;fillColor=none;" vertex="1" parent="1">
          <mxGeometry x="5" y="110" width="480" height="30" as="geometry" />
        </mxCell>
        <mxCell id="rxYL-eJ43rA7LrPXwkPJ-21" style="edgeStyle=orthogonalEdgeStyle;rounded=0;orthogonalLoop=1;jettySize=auto;html=1;exitX=0.5;exitY=1;exitDx=0;exitDy=0;entryX=0.5;entryY=0;entryDx=0;entryDy=0;" edge="1" parent="1" source="rxYL-eJ43rA7LrPXwkPJ-3" target="rxYL-eJ43rA7LrPXwkPJ-20">
          <mxGeometry relative="1" as="geometry" />
        </mxCell>
        <mxCell id="rxYL-eJ43rA7LrPXwkPJ-3" value="Начало" style="ellipse;whiteSpace=wrap;html=1;" vertex="1" parent="1">
          <mxGeometry x="354" y="160" width="120" height="80" as="geometry" />
        </mxCell>
        <mxCell id="rxYL-eJ43rA7LrPXwkPJ-23" style="edgeStyle=orthogonalEdgeStyle;rounded=0;orthogonalLoop=1;jettySize=auto;html=1;exitX=0.5;exitY=1;exitDx=0;exitDy=0;entryX=0.5;entryY=0;entryDx=0;entryDy=0;" edge="1" parent="1" source="rxYL-eJ43rA7LrPXwkPJ-20" target="rxYL-eJ43rA7LrPXwkPJ-22">
          <mxGeometry relative="1" as="geometry" />
        </mxCell>
        <mxCell id="rxYL-eJ43rA7LrPXwkPJ-20" value="stringstream os" style="shape=parallelogram;perimeter=parallelogramPerimeter;whiteSpace=wrap;html=1;fixedSize=1;" vertex="1" parent="1">
          <mxGeometry x="354" y="290" width="120" height="60" as="geometry" />
        </mxCell>
        <mxCell id="rxYL-eJ43rA7LrPXwkPJ-25" style="edgeStyle=orthogonalEdgeStyle;rounded=0;orthogonalLoop=1;jettySize=auto;html=1;exitX=0.5;exitY=1;exitDx=0;exitDy=0;entryX=0.5;entryY=0;entryDx=0;entryDy=0;" edge="1" parent="1" source="rxYL-eJ43rA7LrPXwkPJ-22" target="rxYL-eJ43rA7LrPXwkPJ-24">
          <mxGeometry relative="1" as="geometry" />
        </mxCell>
        <mxCell id="rxYL-eJ43rA7LrPXwkPJ-22" value="os&amp;lt;&amp;lt;words" style="rounded=0;whiteSpace=wrap;html=1;" vertex="1" parent="1">
          <mxGeometry x="354" y="390" width="120" height="60" as="geometry" />
        </mxCell>
        <mxCell id="rxYL-eJ43rA7LrPXwkPJ-27" style="edgeStyle=orthogonalEdgeStyle;rounded=0;orthogonalLoop=1;jettySize=auto;html=1;exitX=0.5;exitY=1;exitDx=0;exitDy=0;entryX=0.5;entryY=0;entryDx=0;entryDy=0;" edge="1" parent="1" source="rxYL-eJ43rA7LrPXwkPJ-24" target="rxYL-eJ43rA7LrPXwkPJ-26">
          <mxGeometry relative="1" as="geometry" />
        </mxCell>
        <mxCell id="rxYL-eJ43rA7LrPXwkPJ-42" style="edgeStyle=orthogonalEdgeStyle;rounded=0;orthogonalLoop=1;jettySize=auto;html=1;exitX=0;exitY=0.5;exitDx=0;exitDy=0;entryX=1;entryY=0.5;entryDx=0;entryDy=0;" edge="1" parent="1" source="rxYL-eJ43rA7LrPXwkPJ-24" target="rxYL-eJ43rA7LrPXwkPJ-41">
          <mxGeometry relative="1" as="geometry" />
        </mxCell>
        <mxCell id="rxYL-eJ43rA7LrPXwkPJ-24" value="os" style="rhombus;whiteSpace=wrap;html=1;" vertex="1" parent="1">
          <mxGeometry x="374" y="505" width="80" height="80" as="geometry" />
        </mxCell>
        <mxCell id="rxYL-eJ43rA7LrPXwkPJ-29" style="edgeStyle=orthogonalEdgeStyle;rounded=0;orthogonalLoop=1;jettySize=auto;html=1;exitX=0.5;exitY=1;exitDx=0;exitDy=0;entryX=0.5;entryY=0;entryDx=0;entryDy=0;" edge="1" parent="1" source="rxYL-eJ43rA7LrPXwkPJ-26" target="rxYL-eJ43rA7LrPXwkPJ-28">
          <mxGeometry relative="1" as="geometry" />
        </mxCell>
        <mxCell id="rxYL-eJ43rA7LrPXwkPJ-26" value="string temp" style="shape=parallelogram;perimeter=parallelogramPerimeter;whiteSpace=wrap;html=1;fixedSize=1;" vertex="1" parent="1">
          <mxGeometry x="354" y="650" width="120" height="60" as="geometry" />
        </mxCell>
        <mxCell id="rxYL-eJ43rA7LrPXwkPJ-39" style="edgeStyle=orthogonalEdgeStyle;rounded=0;orthogonalLoop=1;jettySize=auto;html=1;exitX=0.5;exitY=1;exitDx=0;exitDy=0;entryX=0.5;entryY=0;entryDx=0;entryDy=0;" edge="1" parent="1" source="rxYL-eJ43rA7LrPXwkPJ-28" target="rxYL-eJ43rA7LrPXwkPJ-30">
          <mxGeometry relative="1" as="geometry" />
        </mxCell>
        <mxCell id="rxYL-eJ43rA7LrPXwkPJ-28" value="os&gt;&gt;temp" style="rounded=0;whiteSpace=wrap;html=1;" vertex="1" parent="1">
          <mxGeometry x="354" y="760" width="120" height="60" as="geometry" />
        </mxCell>
        <mxCell id="rxYL-eJ43rA7LrPXwkPJ-32" style="edgeStyle=orthogonalEdgeStyle;rounded=0;orthogonalLoop=1;jettySize=auto;html=1;exitX=0;exitY=0.5;exitDx=0;exitDy=0;entryX=0.461;entryY=0.017;entryDx=0;entryDy=0;entryPerimeter=0;" edge="1" parent="1" source="rxYL-eJ43rA7LrPXwkPJ-30" target="rxYL-eJ43rA7LrPXwkPJ-31">
          <mxGeometry relative="1" as="geometry" />
        </mxCell>
        <mxCell id="rxYL-eJ43rA7LrPXwkPJ-36" style="edgeStyle=orthogonalEdgeStyle;rounded=0;orthogonalLoop=1;jettySize=auto;html=1;exitX=1;exitY=0.5;exitDx=0;exitDy=0;endArrow=none;endFill=0;" edge="1" parent="1" source="rxYL-eJ43rA7LrPXwkPJ-30">
          <mxGeometry relative="1" as="geometry">
            <mxPoint x="440" y="1180" as="targetPoint" />
            <Array as="points">
              <mxPoint x="547" y="900" />
              <mxPoint x="547" y="1130" />
              <mxPoint x="420" y="1130" />
              <mxPoint x="420" y="1180" />
            </Array>
          </mxGeometry>
        </mxCell>
        <mxCell id="rxYL-eJ43rA7LrPXwkPJ-30" value="temp.find(find_word)!=string::npos" style="rhombus;whiteSpace=wrap;html=1;" vertex="1" parent="1">
          <mxGeometry x="301" y="860" width="226" height="80" as="geometry" />
        </mxCell>
        <mxCell id="rxYL-eJ43rA7LrPXwkPJ-38" style="edgeStyle=orthogonalEdgeStyle;rounded=0;orthogonalLoop=1;jettySize=auto;html=1;exitX=0.5;exitY=1;exitDx=0;exitDy=0;endArrow=none;endFill=0;" edge="1" parent="1" source="rxYL-eJ43rA7LrPXwkPJ-31">
          <mxGeometry relative="1" as="geometry">
            <mxPoint x="440" y="1180" as="targetPoint" />
            <Array as="points">
              <mxPoint x="284" y="1130" />
              <mxPoint x="420" y="1130" />
              <mxPoint x="420" y="1180" />
            </Array>
          </mxGeometry>
        </mxCell>
        <mxCell id="rxYL-eJ43rA7LrPXwkPJ-31" value="arr.push_back(temp)" style="shape=process;whiteSpace=wrap;html=1;backgroundOutline=1;" vertex="1" parent="1">
          <mxGeometry x="194" y="1000" width="180" height="60" as="geometry" />
        </mxCell>
        <mxCell id="rxYL-eJ43rA7LrPXwkPJ-33" value="+" style="text;html=1;align=center;verticalAlign=middle;resizable=0;points=[];autosize=1;strokeColor=none;fillColor=none;" vertex="1" parent="1">
          <mxGeometry x="290" y="860" width="30" height="30" as="geometry" />
        </mxCell>
        <mxCell id="rxYL-eJ43rA7LrPXwkPJ-34" value="-" style="text;html=1;align=center;verticalAlign=middle;resizable=0;points=[];autosize=1;strokeColor=none;fillColor=none;" vertex="1" parent="1">
          <mxGeometry x="470" y="860" width="30" height="30" as="geometry" />
        </mxCell>
        <mxCell id="rxYL-eJ43rA7LrPXwkPJ-40" value="" style="edgeStyle=segmentEdgeStyle;endArrow=classic;html=1;curved=0;rounded=0;endSize=8;startSize=8;sourcePerimeterSpacing=0;targetPerimeterSpacing=0;" edge="1" parent="1">
          <mxGeometry width="100" relative="1" as="geometry">
            <mxPoint x="434" y="1180" as="sourcePoint" />
            <mxPoint x="414" y="480" as="targetPoint" />
            <Array as="points">
              <mxPoint x="644" y="1180" />
              <mxPoint x="644" y="480" />
            </Array>
          </mxGeometry>
        </mxCell>
        <mxCell id="rxYL-eJ43rA7LrPXwkPJ-41" value="Конец" style="ellipse;whiteSpace=wrap;html=1;" vertex="1" parent="1">
          <mxGeometry x="100" y="505" width="120" height="80" as="geometry" />
        </mxCell>
      </root>
    </mxGraphModel>
  </diagram>
  <diagram id="iDbfKAEMIoIoFI_FpZLj" name="Страница 3">
    <mxGraphModel dx="2390" dy="1303" grid="1" gridSize="10" guides="1" tooltips="1" connect="1" arrows="1" fold="1" page="1" pageScale="1" pageWidth="827" pageHeight="1169" math="0" shadow="0">
      <root>
        <mxCell id="0" />
        <mxCell id="1" parent="0" />
        <mxCell id="b29BD2LxHmgoh9FdlGj2-1" value="int main()" style="text;html=1;align=center;verticalAlign=middle;resizable=0;points=[];autosize=1;strokeColor=none;fillColor=none;" vertex="1" parent="1">
          <mxGeometry x="300" width="80" height="30" as="geometry" />
        </mxCell>
        <mxCell id="b29BD2LxHmgoh9FdlGj2-6" style="edgeStyle=orthogonalEdgeStyle;rounded=0;orthogonalLoop=1;jettySize=auto;html=1;exitX=0.5;exitY=1;exitDx=0;exitDy=0;entryX=0.5;entryY=0;entryDx=0;entryDy=0;" edge="1" parent="1" source="b29BD2LxHmgoh9FdlGj2-2" target="b29BD2LxHmgoh9FdlGj2-3">
          <mxGeometry relative="1" as="geometry" />
        </mxCell>
        <mxCell id="b29BD2LxHmgoh9FdlGj2-2" value="Начало" style="ellipse;whiteSpace=wrap;html=1;" vertex="1" parent="1">
          <mxGeometry x="380" y="35" width="120" height="80" as="geometry" />
        </mxCell>
        <mxCell id="b29BD2LxHmgoh9FdlGj2-7" style="edgeStyle=orthogonalEdgeStyle;rounded=0;orthogonalLoop=1;jettySize=auto;html=1;exitX=0.5;exitY=1;exitDx=0;exitDy=0;entryX=0.575;entryY=-0.05;entryDx=0;entryDy=0;entryPerimeter=0;" edge="1" parent="1" source="b29BD2LxHmgoh9FdlGj2-3" target="b29BD2LxHmgoh9FdlGj2-4">
          <mxGeometry relative="1" as="geometry" />
        </mxCell>
        <mxCell id="b29BD2LxHmgoh9FdlGj2-3" value="vector&amp;lt;string&amp;gt; arr" style="shape=parallelogram;perimeter=parallelogramPerimeter;whiteSpace=wrap;html=1;fixedSize=1;" vertex="1" parent="1">
          <mxGeometry x="380" y="135" width="120" height="60" as="geometry" />
        </mxCell>
        <mxCell id="b29BD2LxHmgoh9FdlGj2-8" style="edgeStyle=orthogonalEdgeStyle;rounded=0;orthogonalLoop=1;jettySize=auto;html=1;exitX=0.5;exitY=1;exitDx=0;exitDy=0;entryX=0.5;entryY=0;entryDx=0;entryDy=0;" edge="1" parent="1" source="b29BD2LxHmgoh9FdlGj2-4" target="b29BD2LxHmgoh9FdlGj2-5">
          <mxGeometry relative="1" as="geometry" />
        </mxCell>
        <mxCell id="b29BD2LxHmgoh9FdlGj2-4" value="string find_substring" style="shape=parallelogram;perimeter=parallelogramPerimeter;whiteSpace=wrap;html=1;fixedSize=1;" vertex="1" parent="1">
          <mxGeometry x="360" y="215" width="130" height="60" as="geometry" />
        </mxCell>
        <mxCell id="b29BD2LxHmgoh9FdlGj2-10" style="edgeStyle=orthogonalEdgeStyle;rounded=0;orthogonalLoop=1;jettySize=auto;html=1;exitX=0.5;exitY=1;exitDx=0;exitDy=0;entryX=0.5;entryY=0;entryDx=0;entryDy=0;" edge="1" parent="1" source="b29BD2LxHmgoh9FdlGj2-5" target="b29BD2LxHmgoh9FdlGj2-9">
          <mxGeometry relative="1" as="geometry" />
        </mxCell>
        <mxCell id="b29BD2LxHmgoh9FdlGj2-5" value="string file_name" style="shape=parallelogram;perimeter=parallelogramPerimeter;whiteSpace=wrap;html=1;fixedSize=1;" vertex="1" parent="1">
          <mxGeometry x="370" y="295" width="120" height="60" as="geometry" />
        </mxCell>
        <mxCell id="b29BD2LxHmgoh9FdlGj2-12" style="edgeStyle=orthogonalEdgeStyle;rounded=0;orthogonalLoop=1;jettySize=auto;html=1;exitX=0.5;exitY=1;exitDx=0;exitDy=0;entryX=0.5;entryY=0;entryDx=0;entryDy=0;" edge="1" parent="1" source="b29BD2LxHmgoh9FdlGj2-9" target="b29BD2LxHmgoh9FdlGj2-11">
          <mxGeometry relative="1" as="geometry" />
        </mxCell>
        <mxCell id="b29BD2LxHmgoh9FdlGj2-9" value="cin&amp;gt;&amp;gt;file_name" style="rounded=0;whiteSpace=wrap;html=1;" vertex="1" parent="1">
          <mxGeometry x="370" y="380" width="120" height="60" as="geometry" />
        </mxCell>
        <mxCell id="b29BD2LxHmgoh9FdlGj2-14" style="edgeStyle=orthogonalEdgeStyle;rounded=0;orthogonalLoop=1;jettySize=auto;html=1;exitX=0.5;exitY=1;exitDx=0;exitDy=0;entryX=0.5;entryY=0;entryDx=0;entryDy=0;" edge="1" parent="1" source="b29BD2LxHmgoh9FdlGj2-11" target="b29BD2LxHmgoh9FdlGj2-13">
          <mxGeometry relative="1" as="geometry" />
        </mxCell>
        <mxCell id="b29BD2LxHmgoh9FdlGj2-11" value="ifstream fs(file_name.c_str())" style="rounded=0;whiteSpace=wrap;html=1;" vertex="1" parent="1">
          <mxGeometry x="370" y="470" width="120" height="60" as="geometry" />
        </mxCell>
        <mxCell id="b29BD2LxHmgoh9FdlGj2-16" style="edgeStyle=orthogonalEdgeStyle;rounded=0;orthogonalLoop=1;jettySize=auto;html=1;exitX=0.5;exitY=1;exitDx=0;exitDy=0;entryX=0.5;entryY=0;entryDx=0;entryDy=0;" edge="1" parent="1" source="b29BD2LxHmgoh9FdlGj2-13" target="b29BD2LxHmgoh9FdlGj2-15">
          <mxGeometry relative="1" as="geometry" />
        </mxCell>
        <mxCell id="b29BD2LxHmgoh9FdlGj2-13" value="int counter_for_blank {0}" style="rounded=0;whiteSpace=wrap;html=1;" vertex="1" parent="1">
          <mxGeometry x="370" y="550" width="120" height="60" as="geometry" />
        </mxCell>
        <mxCell id="b29BD2LxHmgoh9FdlGj2-18" style="edgeStyle=orthogonalEdgeStyle;rounded=0;orthogonalLoop=1;jettySize=auto;html=1;exitX=0.5;exitY=1;exitDx=0;exitDy=0;entryX=0.5;entryY=0;entryDx=0;entryDy=0;" edge="1" parent="1" source="b29BD2LxHmgoh9FdlGj2-15" target="b29BD2LxHmgoh9FdlGj2-17">
          <mxGeometry relative="1" as="geometry" />
        </mxCell>
        <mxCell id="b29BD2LxHmgoh9FdlGj2-15" value="int counter_for_other {0}" style="rounded=0;whiteSpace=wrap;html=1;" vertex="1" parent="1">
          <mxGeometry x="370" y="630" width="120" height="60" as="geometry" />
        </mxCell>
        <mxCell id="b29BD2LxHmgoh9FdlGj2-20" style="edgeStyle=orthogonalEdgeStyle;rounded=0;orthogonalLoop=1;jettySize=auto;html=1;exitX=0;exitY=0.5;exitDx=0;exitDy=0;entryX=0.5;entryY=0;entryDx=0;entryDy=0;" edge="1" parent="1" source="b29BD2LxHmgoh9FdlGj2-17" target="b29BD2LxHmgoh9FdlGj2-19">
          <mxGeometry relative="1" as="geometry" />
        </mxCell>
        <mxCell id="b29BD2LxHmgoh9FdlGj2-25" style="edgeStyle=orthogonalEdgeStyle;rounded=0;orthogonalLoop=1;jettySize=auto;html=1;exitX=1;exitY=0.5;exitDx=0;exitDy=0;entryX=0.5;entryY=0;entryDx=0;entryDy=0;" edge="1" parent="1" source="b29BD2LxHmgoh9FdlGj2-17" target="b29BD2LxHmgoh9FdlGj2-23">
          <mxGeometry relative="1" as="geometry" />
        </mxCell>
        <mxCell id="b29BD2LxHmgoh9FdlGj2-17" value="!fs" style="rhombus;whiteSpace=wrap;html=1;" vertex="1" parent="1">
          <mxGeometry x="390" y="730" width="80" height="80" as="geometry" />
        </mxCell>
        <mxCell id="b29BD2LxHmgoh9FdlGj2-19" value="Конец" style="ellipse;whiteSpace=wrap;html=1;" vertex="1" parent="1">
          <mxGeometry x="290" y="850" width="120" height="80" as="geometry" />
        </mxCell>
        <mxCell id="b29BD2LxHmgoh9FdlGj2-21" value="+" style="text;html=1;align=center;verticalAlign=middle;resizable=0;points=[];autosize=1;strokeColor=none;fillColor=none;" vertex="1" parent="1">
          <mxGeometry x="365" y="735" width="30" height="30" as="geometry" />
        </mxCell>
        <mxCell id="b29BD2LxHmgoh9FdlGj2-22" value="-" style="text;html=1;align=center;verticalAlign=middle;resizable=0;points=[];autosize=1;strokeColor=none;fillColor=none;" vertex="1" parent="1">
          <mxGeometry x="455" y="730" width="30" height="30" as="geometry" />
        </mxCell>
        <mxCell id="b29BD2LxHmgoh9FdlGj2-27" style="edgeStyle=orthogonalEdgeStyle;rounded=0;orthogonalLoop=1;jettySize=auto;html=1;exitX=0.5;exitY=1;exitDx=0;exitDy=0;entryX=0.5;entryY=0;entryDx=0;entryDy=0;" edge="1" parent="1" source="b29BD2LxHmgoh9FdlGj2-23" target="b29BD2LxHmgoh9FdlGj2-26">
          <mxGeometry relative="1" as="geometry" />
        </mxCell>
        <mxCell id="b29BD2LxHmgoh9FdlGj2-23" value="cin&gt;&gt;find_substring" style="rounded=0;whiteSpace=wrap;html=1;" vertex="1" parent="1">
          <mxGeometry x="890" y="145" width="120" height="60" as="geometry" />
        </mxCell>
        <mxCell id="b29BD2LxHmgoh9FdlGj2-30" style="edgeStyle=orthogonalEdgeStyle;rounded=0;orthogonalLoop=1;jettySize=auto;html=1;exitX=0.5;exitY=1;exitDx=0;exitDy=0;entryX=0.5;entryY=0;entryDx=0;entryDy=0;" edge="1" parent="1" source="b29BD2LxHmgoh9FdlGj2-26" target="b29BD2LxHmgoh9FdlGj2-29">
          <mxGeometry relative="1" as="geometry" />
        </mxCell>
        <mxCell id="b29BD2LxHmgoh9FdlGj2-40" style="edgeStyle=orthogonalEdgeStyle;rounded=0;orthogonalLoop=1;jettySize=auto;html=1;exitX=1;exitY=0.5;exitDx=0;exitDy=0;entryX=0.5;entryY=0;entryDx=0;entryDy=0;" edge="1" parent="1" source="b29BD2LxHmgoh9FdlGj2-26" target="b29BD2LxHmgoh9FdlGj2-39">
          <mxGeometry relative="1" as="geometry" />
        </mxCell>
        <mxCell id="b29BD2LxHmgoh9FdlGj2-26" value="fs" style="rhombus;whiteSpace=wrap;html=1;" vertex="1" parent="1">
          <mxGeometry x="910" y="250" width="80" height="80" as="geometry" />
        </mxCell>
        <mxCell id="b29BD2LxHmgoh9FdlGj2-32" style="edgeStyle=orthogonalEdgeStyle;rounded=0;orthogonalLoop=1;jettySize=auto;html=1;exitX=0.5;exitY=1;exitDx=0;exitDy=0;entryX=0.5;entryY=0;entryDx=0;entryDy=0;" edge="1" parent="1" source="b29BD2LxHmgoh9FdlGj2-29" target="b29BD2LxHmgoh9FdlGj2-31">
          <mxGeometry relative="1" as="geometry" />
        </mxCell>
        <mxCell id="b29BD2LxHmgoh9FdlGj2-29" value="string temp" style="shape=parallelogram;perimeter=parallelogramPerimeter;whiteSpace=wrap;html=1;fixedSize=1;" vertex="1" parent="1">
          <mxGeometry x="890" y="380" width="120" height="60" as="geometry" />
        </mxCell>
        <mxCell id="b29BD2LxHmgoh9FdlGj2-34" style="edgeStyle=orthogonalEdgeStyle;rounded=0;orthogonalLoop=1;jettySize=auto;html=1;exitX=0.5;exitY=1;exitDx=0;exitDy=0;entryX=0.5;entryY=0;entryDx=0;entryDy=0;" edge="1" parent="1" source="b29BD2LxHmgoh9FdlGj2-31" target="b29BD2LxHmgoh9FdlGj2-33">
          <mxGeometry relative="1" as="geometry" />
        </mxCell>
        <mxCell id="b29BD2LxHmgoh9FdlGj2-31" value="getline(fs,temp)" style="shape=process;whiteSpace=wrap;html=1;backgroundOutline=1;" vertex="1" parent="1">
          <mxGeometry x="890" y="470" width="120" height="60" as="geometry" />
        </mxCell>
        <mxCell id="b29BD2LxHmgoh9FdlGj2-36" style="edgeStyle=orthogonalEdgeStyle;rounded=0;orthogonalLoop=1;jettySize=auto;html=1;exitX=0.5;exitY=1;exitDx=0;exitDy=0;entryX=0.5;entryY=0;entryDx=0;entryDy=0;" edge="1" parent="1" source="b29BD2LxHmgoh9FdlGj2-33" target="b29BD2LxHmgoh9FdlGj2-35">
          <mxGeometry relative="1" as="geometry" />
        </mxCell>
        <mxCell id="b29BD2LxHmgoh9FdlGj2-33" value="check_for_blank(counter_for_blank,counter_for_other,temp)" style="shape=process;whiteSpace=wrap;html=1;backgroundOutline=1;" vertex="1" parent="1">
          <mxGeometry x="735" y="550" width="430" height="60" as="geometry" />
        </mxCell>
        <mxCell id="b29BD2LxHmgoh9FdlGj2-37" style="edgeStyle=orthogonalEdgeStyle;rounded=0;orthogonalLoop=1;jettySize=auto;html=1;exitX=0.5;exitY=1;exitDx=0;exitDy=0;" edge="1" parent="1" source="b29BD2LxHmgoh9FdlGj2-35">
          <mxGeometry relative="1" as="geometry">
            <mxPoint x="949.4705882352941" y="220" as="targetPoint" />
            <Array as="points">
              <mxPoint x="950" y="720" />
              <mxPoint x="720" y="720" />
              <mxPoint x="720" y="220" />
            </Array>
          </mxGeometry>
        </mxCell>
        <mxCell id="b29BD2LxHmgoh9FdlGj2-35" value="check_for_sub(arr,temp,find_substring)" style="shape=process;whiteSpace=wrap;html=1;backgroundOutline=1;" vertex="1" parent="1">
          <mxGeometry x="805" y="640" width="290" height="60" as="geometry" />
        </mxCell>
        <mxCell id="b29BD2LxHmgoh9FdlGj2-38" value="+" style="text;html=1;align=center;verticalAlign=middle;resizable=0;points=[];autosize=1;strokeColor=none;fillColor=none;" vertex="1" parent="1">
          <mxGeometry x="915" y="325" width="30" height="30" as="geometry" />
        </mxCell>
        <mxCell id="b29BD2LxHmgoh9FdlGj2-42" style="edgeStyle=orthogonalEdgeStyle;rounded=0;orthogonalLoop=1;jettySize=auto;html=1;exitX=0.5;exitY=1;exitDx=0;exitDy=0;entryX=0.5;entryY=0;entryDx=0;entryDy=0;" edge="1" parent="1" source="b29BD2LxHmgoh9FdlGj2-39" target="b29BD2LxHmgoh9FdlGj2-41">
          <mxGeometry relative="1" as="geometry" />
        </mxCell>
        <mxCell id="b29BD2LxHmgoh9FdlGj2-39" value="fs.close()" style="shape=process;whiteSpace=wrap;html=1;backgroundOutline=1;" vertex="1" parent="1">
          <mxGeometry x="1280" y="340" width="120" height="60" as="geometry" />
        </mxCell>
        <mxCell id="b29BD2LxHmgoh9FdlGj2-47" style="edgeStyle=orthogonalEdgeStyle;rounded=0;orthogonalLoop=1;jettySize=auto;html=1;exitX=0.5;exitY=1;exitDx=0;exitDy=0;entryX=0.5;entryY=0;entryDx=0;entryDy=0;" edge="1" parent="1" source="b29BD2LxHmgoh9FdlGj2-41" target="b29BD2LxHmgoh9FdlGj2-43">
          <mxGeometry relative="1" as="geometry" />
        </mxCell>
        <mxCell id="b29BD2LxHmgoh9FdlGj2-41" value="ofstream in(&quot;result.txt&quot;)" style="rounded=0;whiteSpace=wrap;html=1;" vertex="1" parent="1">
          <mxGeometry x="1280" y="420" width="120" height="60" as="geometry" />
        </mxCell>
        <mxCell id="b29BD2LxHmgoh9FdlGj2-46" style="edgeStyle=orthogonalEdgeStyle;rounded=0;orthogonalLoop=1;jettySize=auto;html=1;exitX=0;exitY=0.5;exitDx=0;exitDy=0;entryX=0.5;entryY=0;entryDx=0;entryDy=0;" edge="1" parent="1" source="b29BD2LxHmgoh9FdlGj2-43" target="b29BD2LxHmgoh9FdlGj2-45">
          <mxGeometry relative="1" as="geometry" />
        </mxCell>
        <mxCell id="b29BD2LxHmgoh9FdlGj2-51" style="edgeStyle=orthogonalEdgeStyle;rounded=0;orthogonalLoop=1;jettySize=auto;html=1;exitX=1;exitY=0.5;exitDx=0;exitDy=0;entryX=0.5;entryY=0;entryDx=0;entryDy=0;" edge="1" parent="1" source="b29BD2LxHmgoh9FdlGj2-43" target="b29BD2LxHmgoh9FdlGj2-50">
          <mxGeometry relative="1" as="geometry">
            <Array as="points">
              <mxPoint x="1400" y="550" />
              <mxPoint x="1400" y="710" />
              <mxPoint x="1330" y="710" />
            </Array>
          </mxGeometry>
        </mxCell>
        <mxCell id="b29BD2LxHmgoh9FdlGj2-43" value="!in" style="rhombus;whiteSpace=wrap;html=1;" vertex="1" parent="1">
          <mxGeometry x="1300" y="510" width="80" height="80" as="geometry" />
        </mxCell>
        <mxCell id="b29BD2LxHmgoh9FdlGj2-45" value="Конец" style="ellipse;whiteSpace=wrap;html=1;" vertex="1" parent="1">
          <mxGeometry x="1210" y="590" width="120" height="80" as="geometry" />
        </mxCell>
        <mxCell id="b29BD2LxHmgoh9FdlGj2-48" value="+" style="text;html=1;align=center;verticalAlign=middle;resizable=0;points=[];autosize=1;strokeColor=none;fillColor=none;" vertex="1" parent="1">
          <mxGeometry x="1280" y="520" width="30" height="30" as="geometry" />
        </mxCell>
        <mxCell id="b29BD2LxHmgoh9FdlGj2-49" value="-" style="text;html=1;align=center;verticalAlign=middle;resizable=0;points=[];autosize=1;strokeColor=none;fillColor=none;" vertex="1" parent="1">
          <mxGeometry x="1370" y="520" width="30" height="30" as="geometry" />
        </mxCell>
        <mxCell id="b29BD2LxHmgoh9FdlGj2-55" style="edgeStyle=orthogonalEdgeStyle;rounded=0;orthogonalLoop=1;jettySize=auto;html=1;exitX=0.5;exitY=1;exitDx=0;exitDy=0;entryX=0.5;entryY=0;entryDx=0;entryDy=0;" edge="1" parent="1" source="b29BD2LxHmgoh9FdlGj2-50" target="b29BD2LxHmgoh9FdlGj2-52">
          <mxGeometry relative="1" as="geometry" />
        </mxCell>
        <mxCell id="b29BD2LxHmgoh9FdlGj2-58" style="edgeStyle=orthogonalEdgeStyle;rounded=0;orthogonalLoop=1;jettySize=auto;html=1;exitX=0;exitY=0.5;exitDx=0;exitDy=0;entryX=0.5;entryY=0;entryDx=0;entryDy=0;" edge="1" parent="1" source="b29BD2LxHmgoh9FdlGj2-50" target="b29BD2LxHmgoh9FdlGj2-57">
          <mxGeometry relative="1" as="geometry" />
        </mxCell>
        <mxCell id="b29BD2LxHmgoh9FdlGj2-50" value="const auto h:arr" style="shape=hexagon;perimeter=hexagonPerimeter2;whiteSpace=wrap;html=1;fixedSize=1;" vertex="1" parent="1">
          <mxGeometry x="1270" y="780" width="120" height="80" as="geometry" />
        </mxCell>
        <mxCell id="b29BD2LxHmgoh9FdlGj2-54" style="edgeStyle=orthogonalEdgeStyle;rounded=0;orthogonalLoop=1;jettySize=auto;html=1;exitX=0.5;exitY=1;exitDx=0;exitDy=0;entryX=0.5;entryY=0;entryDx=0;entryDy=0;" edge="1" parent="1" source="b29BD2LxHmgoh9FdlGj2-52" target="b29BD2LxHmgoh9FdlGj2-53">
          <mxGeometry relative="1" as="geometry" />
        </mxCell>
        <mxCell id="b29BD2LxHmgoh9FdlGj2-52" value="in&amp;lt;&amp;lt;h" style="rounded=0;whiteSpace=wrap;html=1;" vertex="1" parent="1">
          <mxGeometry x="1270" y="880" width="120" height="60" as="geometry" />
        </mxCell>
        <mxCell id="b29BD2LxHmgoh9FdlGj2-56" style="edgeStyle=orthogonalEdgeStyle;rounded=0;orthogonalLoop=1;jettySize=auto;html=1;exitX=0.5;exitY=1;exitDx=0;exitDy=0;entryX=1;entryY=0.5;entryDx=0;entryDy=0;" edge="1" parent="1" source="b29BD2LxHmgoh9FdlGj2-53" target="b29BD2LxHmgoh9FdlGj2-50">
          <mxGeometry relative="1" as="geometry">
            <Array as="points">
              <mxPoint x="1330" y="1050" />
              <mxPoint x="1410" y="1050" />
              <mxPoint x="1410" y="820" />
            </Array>
          </mxGeometry>
        </mxCell>
        <mxCell id="b29BD2LxHmgoh9FdlGj2-53" value="in&amp;lt;&amp;lt;endl" style="rounded=0;whiteSpace=wrap;html=1;" vertex="1" parent="1">
          <mxGeometry x="1270" y="970" width="120" height="60" as="geometry" />
        </mxCell>
        <mxCell id="b29BD2LxHmgoh9FdlGj2-57" value="Конец" style="ellipse;whiteSpace=wrap;html=1;" vertex="1" parent="1">
          <mxGeometry x="1070" y="860" width="120" height="80" as="geometry" />
        </mxCell>
      </root>
    </mxGraphModel>
  </diagram>
  <diagram id="M76PYj30hHAR4txgRDKG" name="Страница 4">
    <mxGraphModel dx="1247" dy="680" grid="1" gridSize="10" guides="1" tooltips="1" connect="1" arrows="1" fold="1" page="1" pageScale="1" pageWidth="827" pageHeight="1169" math="0" shadow="0">
      <root>
        <mxCell id="0" />
        <mxCell id="1" parent="0" />
        <mxCell id="RonNUOo7fwYPJ5fVtx0N-1" value="int main()" style="text;html=1;align=center;verticalAlign=middle;resizable=0;points=[];autosize=1;strokeColor=none;fillColor=none;" vertex="1" parent="1">
          <mxGeometry x="170" y="95" width="80" height="30" as="geometry" />
        </mxCell>
        <mxCell id="RonNUOo7fwYPJ5fVtx0N-4" style="edgeStyle=orthogonalEdgeStyle;rounded=0;orthogonalLoop=1;jettySize=auto;html=1;exitX=0.5;exitY=1;exitDx=0;exitDy=0;entryX=0.5;entryY=0;entryDx=0;entryDy=0;" edge="1" parent="1" source="RonNUOo7fwYPJ5fVtx0N-2" target="RonNUOo7fwYPJ5fVtx0N-3">
          <mxGeometry relative="1" as="geometry" />
        </mxCell>
        <mxCell id="RonNUOo7fwYPJ5fVtx0N-2" value="Начало" style="ellipse;whiteSpace=wrap;html=1;" vertex="1" parent="1">
          <mxGeometry x="270" y="140" width="120" height="80" as="geometry" />
        </mxCell>
        <mxCell id="RonNUOo7fwYPJ5fVtx0N-6" style="edgeStyle=orthogonalEdgeStyle;rounded=0;orthogonalLoop=1;jettySize=auto;html=1;exitX=0.5;exitY=1;exitDx=0;exitDy=0;entryX=0.5;entryY=0;entryDx=0;entryDy=0;" edge="1" parent="1" source="RonNUOo7fwYPJ5fVtx0N-3" target="RonNUOo7fwYPJ5fVtx0N-5">
          <mxGeometry relative="1" as="geometry" />
        </mxCell>
        <mxCell id="RonNUOo7fwYPJ5fVtx0N-3" value="string file_name" style="shape=parallelogram;perimeter=parallelogramPerimeter;whiteSpace=wrap;html=1;fixedSize=1;" vertex="1" parent="1">
          <mxGeometry x="270" y="270" width="120" height="60" as="geometry" />
        </mxCell>
        <mxCell id="RonNUOo7fwYPJ5fVtx0N-9" style="edgeStyle=orthogonalEdgeStyle;rounded=0;orthogonalLoop=1;jettySize=auto;html=1;exitX=0.5;exitY=1;exitDx=0;exitDy=0;" edge="1" parent="1" source="RonNUOo7fwYPJ5fVtx0N-5" target="RonNUOo7fwYPJ5fVtx0N-8">
          <mxGeometry relative="1" as="geometry" />
        </mxCell>
        <mxCell id="RonNUOo7fwYPJ5fVtx0N-5" value="cin&gt;&gt;file_name" style="rounded=0;whiteSpace=wrap;html=1;" vertex="1" parent="1">
          <mxGeometry x="270" y="380" width="120" height="60" as="geometry" />
        </mxCell>
        <mxCell id="RonNUOo7fwYPJ5fVtx0N-11" style="edgeStyle=orthogonalEdgeStyle;rounded=0;orthogonalLoop=1;jettySize=auto;html=1;exitX=0.5;exitY=1;exitDx=0;exitDy=0;entryX=0.5;entryY=0;entryDx=0;entryDy=0;" edge="1" parent="1" source="RonNUOo7fwYPJ5fVtx0N-8" target="RonNUOo7fwYPJ5fVtx0N-10">
          <mxGeometry relative="1" as="geometry" />
        </mxCell>
        <mxCell id="RonNUOo7fwYPJ5fVtx0N-8" value="ifstream out(file_name.c_str())" style="rounded=0;whiteSpace=wrap;html=1;" vertex="1" parent="1">
          <mxGeometry x="235" y="470" width="190" height="60" as="geometry" />
        </mxCell>
        <mxCell id="RonNUOo7fwYPJ5fVtx0N-13" style="edgeStyle=orthogonalEdgeStyle;rounded=0;orthogonalLoop=1;jettySize=auto;html=1;exitX=0.5;exitY=1;exitDx=0;exitDy=0;entryX=0.5;entryY=0;entryDx=0;entryDy=0;" edge="1" parent="1" source="RonNUOo7fwYPJ5fVtx0N-10" target="RonNUOo7fwYPJ5fVtx0N-12">
          <mxGeometry relative="1" as="geometry" />
        </mxCell>
        <mxCell id="RonNUOo7fwYPJ5fVtx0N-10" value="ofstream in(&quot;result1.txt&quot;)" style="rounded=0;whiteSpace=wrap;html=1;" vertex="1" parent="1">
          <mxGeometry x="245" y="555" width="170" height="60" as="geometry" />
        </mxCell>
        <mxCell id="RonNUOo7fwYPJ5fVtx0N-15" style="edgeStyle=orthogonalEdgeStyle;rounded=0;orthogonalLoop=1;jettySize=auto;html=1;exitX=0;exitY=0.5;exitDx=0;exitDy=0;entryX=0.5;entryY=0;entryDx=0;entryDy=0;" edge="1" parent="1" source="RonNUOo7fwYPJ5fVtx0N-12" target="RonNUOo7fwYPJ5fVtx0N-14">
          <mxGeometry relative="1" as="geometry" />
        </mxCell>
        <mxCell id="RonNUOo7fwYPJ5fVtx0N-21" style="edgeStyle=orthogonalEdgeStyle;rounded=0;orthogonalLoop=1;jettySize=auto;html=1;exitX=1;exitY=0.5;exitDx=0;exitDy=0;entryX=0.5;entryY=0;entryDx=0;entryDy=0;" edge="1" parent="1" source="RonNUOo7fwYPJ5fVtx0N-12" target="RonNUOo7fwYPJ5fVtx0N-20">
          <mxGeometry relative="1" as="geometry">
            <Array as="points">
              <mxPoint x="390" y="680" />
              <mxPoint x="390" y="860" />
              <mxPoint x="330" y="860" />
            </Array>
          </mxGeometry>
        </mxCell>
        <mxCell id="RonNUOo7fwYPJ5fVtx0N-12" value="!out" style="rhombus;whiteSpace=wrap;html=1;" vertex="1" parent="1">
          <mxGeometry x="290" y="640" width="80" height="80" as="geometry" />
        </mxCell>
        <mxCell id="RonNUOo7fwYPJ5fVtx0N-14" value="Конец" style="ellipse;whiteSpace=wrap;html=1;" vertex="1" parent="1">
          <mxGeometry x="180" y="740" width="120" height="80" as="geometry" />
        </mxCell>
        <mxCell id="RonNUOo7fwYPJ5fVtx0N-16" value="+" style="text;html=1;align=center;verticalAlign=middle;resizable=0;points=[];autosize=1;strokeColor=none;fillColor=none;" vertex="1" parent="1">
          <mxGeometry x="265" y="645" width="30" height="30" as="geometry" />
        </mxCell>
        <mxCell id="RonNUOo7fwYPJ5fVtx0N-17" value="-" style="text;html=1;align=center;verticalAlign=middle;resizable=0;points=[];autosize=1;strokeColor=none;fillColor=none;" vertex="1" parent="1">
          <mxGeometry x="355" y="640" width="30" height="30" as="geometry" />
        </mxCell>
        <mxCell id="RonNUOo7fwYPJ5fVtx0N-23" style="edgeStyle=orthogonalEdgeStyle;rounded=0;orthogonalLoop=1;jettySize=auto;html=1;exitX=0;exitY=0.5;exitDx=0;exitDy=0;entryX=0.442;entryY=0;entryDx=0;entryDy=0;entryPerimeter=0;" edge="1" parent="1" source="RonNUOo7fwYPJ5fVtx0N-20" target="RonNUOo7fwYPJ5fVtx0N-22">
          <mxGeometry relative="1" as="geometry" />
        </mxCell>
        <mxCell id="RonNUOo7fwYPJ5fVtx0N-27" style="edgeStyle=orthogonalEdgeStyle;rounded=0;orthogonalLoop=1;jettySize=auto;html=1;exitX=1;exitY=0.5;exitDx=0;exitDy=0;entryX=0.5;entryY=0;entryDx=0;entryDy=0;" edge="1" parent="1" source="RonNUOo7fwYPJ5fVtx0N-20" target="RonNUOo7fwYPJ5fVtx0N-26">
          <mxGeometry relative="1" as="geometry" />
        </mxCell>
        <mxCell id="RonNUOo7fwYPJ5fVtx0N-20" value="!in" style="rhombus;whiteSpace=wrap;html=1;" vertex="1" parent="1">
          <mxGeometry x="290" y="890" width="80" height="80" as="geometry" />
        </mxCell>
        <mxCell id="RonNUOo7fwYPJ5fVtx0N-22" value="Конец" style="ellipse;whiteSpace=wrap;html=1;" vertex="1" parent="1">
          <mxGeometry x="180" y="1000" width="120" height="80" as="geometry" />
        </mxCell>
        <mxCell id="RonNUOo7fwYPJ5fVtx0N-24" value="+" style="text;html=1;align=center;verticalAlign=middle;resizable=0;points=[];autosize=1;strokeColor=none;fillColor=none;" vertex="1" parent="1">
          <mxGeometry x="270" y="890" width="30" height="30" as="geometry" />
        </mxCell>
        <mxCell id="RonNUOo7fwYPJ5fVtx0N-25" value="-" style="text;html=1;align=center;verticalAlign=middle;resizable=0;points=[];autosize=1;strokeColor=none;fillColor=none;" vertex="1" parent="1">
          <mxGeometry x="345" y="885" width="30" height="30" as="geometry" />
        </mxCell>
        <mxCell id="RonNUOo7fwYPJ5fVtx0N-29" style="edgeStyle=orthogonalEdgeStyle;rounded=0;orthogonalLoop=1;jettySize=auto;html=1;exitX=0.5;exitY=1;exitDx=0;exitDy=0;entryX=0.5;entryY=0;entryDx=0;entryDy=0;" edge="1" parent="1" source="RonNUOo7fwYPJ5fVtx0N-26" target="RonNUOo7fwYPJ5fVtx0N-28">
          <mxGeometry relative="1" as="geometry" />
        </mxCell>
        <mxCell id="RonNUOo7fwYPJ5fVtx0N-26" value="stringstream number" style="shape=parallelogram;perimeter=parallelogramPerimeter;whiteSpace=wrap;html=1;fixedSize=1;" vertex="1" parent="1">
          <mxGeometry x="790" y="180" width="140" height="60" as="geometry" />
        </mxCell>
        <mxCell id="RonNUOo7fwYPJ5fVtx0N-31" style="edgeStyle=orthogonalEdgeStyle;rounded=0;orthogonalLoop=1;jettySize=auto;html=1;exitX=0.5;exitY=1;exitDx=0;exitDy=0;entryX=0.5;entryY=0;entryDx=0;entryDy=0;" edge="1" parent="1" source="RonNUOo7fwYPJ5fVtx0N-28" target="RonNUOo7fwYPJ5fVtx0N-30">
          <mxGeometry relative="1" as="geometry" />
        </mxCell>
        <mxCell id="RonNUOo7fwYPJ5fVtx0N-28" value="bool find_number {false}" style="rounded=0;whiteSpace=wrap;html=1;" vertex="1" parent="1">
          <mxGeometry x="800" y="260" width="160" height="60" as="geometry" />
        </mxCell>
        <mxCell id="RonNUOo7fwYPJ5fVtx0N-33" style="edgeStyle=orthogonalEdgeStyle;rounded=0;orthogonalLoop=1;jettySize=auto;html=1;exitX=0.5;exitY=1;exitDx=0;exitDy=0;entryX=0.5;entryY=0;entryDx=0;entryDy=0;" edge="1" parent="1" source="RonNUOo7fwYPJ5fVtx0N-30" target="RonNUOo7fwYPJ5fVtx0N-32">
          <mxGeometry relative="1" as="geometry" />
        </mxCell>
        <mxCell id="RonNUOo7fwYPJ5fVtx0N-30" value="int counter{0}" style="rounded=0;whiteSpace=wrap;html=1;" vertex="1" parent="1">
          <mxGeometry x="820" y="340" width="120" height="60" as="geometry" />
        </mxCell>
        <mxCell id="RonNUOo7fwYPJ5fVtx0N-35" style="edgeStyle=orthogonalEdgeStyle;rounded=0;orthogonalLoop=1;jettySize=auto;html=1;exitX=0.5;exitY=1;exitDx=0;exitDy=0;entryX=0.5;entryY=0;entryDx=0;entryDy=0;" edge="1" parent="1" source="RonNUOo7fwYPJ5fVtx0N-32" target="RonNUOo7fwYPJ5fVtx0N-34">
          <mxGeometry relative="1" as="geometry" />
        </mxCell>
        <mxCell id="RonNUOo7fwYPJ5fVtx0N-32" value="char temp" style="shape=parallelogram;perimeter=parallelogramPerimeter;whiteSpace=wrap;html=1;fixedSize=1;" vertex="1" parent="1">
          <mxGeometry x="820" y="420" width="120" height="60" as="geometry" />
        </mxCell>
        <mxCell id="RonNUOo7fwYPJ5fVtx0N-37" style="edgeStyle=orthogonalEdgeStyle;rounded=0;orthogonalLoop=1;jettySize=auto;html=1;exitX=0.5;exitY=1;exitDx=0;exitDy=0;entryX=0.5;entryY=0;entryDx=0;entryDy=0;" edge="1" parent="1" source="RonNUOo7fwYPJ5fVtx0N-34" target="RonNUOo7fwYPJ5fVtx0N-36">
          <mxGeometry relative="1" as="geometry" />
        </mxCell>
        <mxCell id="RonNUOo7fwYPJ5fVtx0N-39" style="edgeStyle=orthogonalEdgeStyle;rounded=0;orthogonalLoop=1;jettySize=auto;html=1;exitX=1;exitY=0.5;exitDx=0;exitDy=0;entryX=0;entryY=0.5;entryDx=0;entryDy=0;" edge="1" parent="1" source="RonNUOo7fwYPJ5fVtx0N-34" target="RonNUOo7fwYPJ5fVtx0N-38">
          <mxGeometry relative="1" as="geometry" />
        </mxCell>
        <mxCell id="RonNUOo7fwYPJ5fVtx0N-34" value="out.get(temp)" style="rhombus;whiteSpace=wrap;html=1;" vertex="1" parent="1">
          <mxGeometry x="840" y="535" width="80" height="80" as="geometry" />
        </mxCell>
        <mxCell id="RonNUOo7fwYPJ5fVtx0N-45" style="edgeStyle=orthogonalEdgeStyle;rounded=0;orthogonalLoop=1;jettySize=auto;html=1;exitX=0;exitY=0.5;exitDx=0;exitDy=0;entryX=0.5;entryY=0;entryDx=0;entryDy=0;" edge="1" parent="1" source="RonNUOo7fwYPJ5fVtx0N-36" target="RonNUOo7fwYPJ5fVtx0N-44">
          <mxGeometry relative="1" as="geometry" />
        </mxCell>
        <mxCell id="RonNUOo7fwYPJ5fVtx0N-69" style="edgeStyle=orthogonalEdgeStyle;rounded=0;orthogonalLoop=1;jettySize=auto;html=1;exitX=1;exitY=0.5;exitDx=0;exitDy=0;entryX=0.5;entryY=0;entryDx=0;entryDy=0;" edge="1" parent="1" source="RonNUOo7fwYPJ5fVtx0N-36" target="RonNUOo7fwYPJ5fVtx0N-68">
          <mxGeometry relative="1" as="geometry" />
        </mxCell>
        <mxCell id="RonNUOo7fwYPJ5fVtx0N-36" value="!find_number" style="rhombus;whiteSpace=wrap;html=1;" vertex="1" parent="1">
          <mxGeometry x="840" y="690" width="80" height="80" as="geometry" />
        </mxCell>
        <mxCell id="RonNUOo7fwYPJ5fVtx0N-38" value="Конец" style="ellipse;whiteSpace=wrap;html=1;" vertex="1" parent="1">
          <mxGeometry x="1010" y="535" width="120" height="80" as="geometry" />
        </mxCell>
        <mxCell id="RonNUOo7fwYPJ5fVtx0N-40" value="-" style="text;html=1;align=center;verticalAlign=middle;resizable=0;points=[];autosize=1;strokeColor=none;fillColor=none;" vertex="1" parent="1">
          <mxGeometry x="910" y="535" width="30" height="30" as="geometry" />
        </mxCell>
        <mxCell id="RonNUOo7fwYPJ5fVtx0N-41" value="+" style="text;html=1;align=center;verticalAlign=middle;resizable=0;points=[];autosize=1;strokeColor=none;fillColor=none;" vertex="1" parent="1">
          <mxGeometry x="845" y="610" width="30" height="30" as="geometry" />
        </mxCell>
        <mxCell id="RonNUOo7fwYPJ5fVtx0N-42" value="+" style="text;html=1;align=center;verticalAlign=middle;resizable=0;points=[];autosize=1;strokeColor=none;fillColor=none;" vertex="1" parent="1">
          <mxGeometry x="827" y="690" width="30" height="30" as="geometry" />
        </mxCell>
        <mxCell id="RonNUOo7fwYPJ5fVtx0N-43" value="-" style="text;html=1;align=center;verticalAlign=middle;resizable=0;points=[];autosize=1;strokeColor=none;fillColor=none;" vertex="1" parent="1">
          <mxGeometry x="905" y="685" width="30" height="30" as="geometry" />
        </mxCell>
        <mxCell id="RonNUOo7fwYPJ5fVtx0N-47" style="edgeStyle=orthogonalEdgeStyle;rounded=0;orthogonalLoop=1;jettySize=auto;html=1;exitX=0;exitY=0.5;exitDx=0;exitDy=0;entryX=0.5;entryY=0;entryDx=0;entryDy=0;" edge="1" parent="1" source="RonNUOo7fwYPJ5fVtx0N-44" target="RonNUOo7fwYPJ5fVtx0N-46">
          <mxGeometry relative="1" as="geometry" />
        </mxCell>
        <mxCell id="RonNUOo7fwYPJ5fVtx0N-52" style="edgeStyle=orthogonalEdgeStyle;rounded=0;orthogonalLoop=1;jettySize=auto;html=1;exitX=1;exitY=0.5;exitDx=0;exitDy=0;entryX=0.5;entryY=0;entryDx=0;entryDy=0;" edge="1" parent="1" source="RonNUOo7fwYPJ5fVtx0N-44" target="RonNUOo7fwYPJ5fVtx0N-51">
          <mxGeometry relative="1" as="geometry">
            <Array as="points">
              <mxPoint x="840" y="820" />
              <mxPoint x="840" y="1000" />
              <mxPoint x="780" y="1000" />
            </Array>
          </mxGeometry>
        </mxCell>
        <mxCell id="RonNUOo7fwYPJ5fVtx0N-44" value="temp==&#39;-&#39;" style="rhombus;whiteSpace=wrap;html=1;" vertex="1" parent="1">
          <mxGeometry x="740" y="780" width="80" height="80" as="geometry" />
        </mxCell>
        <mxCell id="RonNUOo7fwYPJ5fVtx0N-48" style="edgeStyle=orthogonalEdgeStyle;rounded=0;orthogonalLoop=1;jettySize=auto;html=1;exitX=0.5;exitY=1;exitDx=0;exitDy=0;" edge="1" parent="1" source="RonNUOo7fwYPJ5fVtx0N-46">
          <mxGeometry relative="1" as="geometry">
            <mxPoint x="880" y="500" as="targetPoint" />
            <Array as="points">
              <mxPoint x="710" y="970" />
              <mxPoint x="630" y="970" />
              <mxPoint x="630" y="500" />
            </Array>
          </mxGeometry>
        </mxCell>
        <mxCell id="RonNUOo7fwYPJ5fVtx0N-46" value="counter++" style="rounded=0;whiteSpace=wrap;html=1;" vertex="1" parent="1">
          <mxGeometry x="650" y="890" width="120" height="60" as="geometry" />
        </mxCell>
        <mxCell id="RonNUOo7fwYPJ5fVtx0N-49" value="+" style="text;html=1;align=center;verticalAlign=middle;resizable=0;points=[];autosize=1;strokeColor=none;fillColor=none;" vertex="1" parent="1">
          <mxGeometry x="715" y="785" width="30" height="30" as="geometry" />
        </mxCell>
        <mxCell id="RonNUOo7fwYPJ5fVtx0N-50" value="-" style="text;html=1;align=center;verticalAlign=middle;resizable=0;points=[];autosize=1;strokeColor=none;fillColor=none;" vertex="1" parent="1">
          <mxGeometry x="797" y="780" width="30" height="30" as="geometry" />
        </mxCell>
        <mxCell id="RonNUOo7fwYPJ5fVtx0N-55" style="edgeStyle=orthogonalEdgeStyle;rounded=0;orthogonalLoop=1;jettySize=auto;html=1;exitX=0;exitY=0.5;exitDx=0;exitDy=0;" edge="1" parent="1" source="RonNUOo7fwYPJ5fVtx0N-51" target="RonNUOo7fwYPJ5fVtx0N-53">
          <mxGeometry relative="1" as="geometry" />
        </mxCell>
        <mxCell id="RonNUOo7fwYPJ5fVtx0N-61" style="edgeStyle=orthogonalEdgeStyle;rounded=0;orthogonalLoop=1;jettySize=auto;html=1;exitX=1;exitY=0.5;exitDx=0;exitDy=0;entryX=0.5;entryY=0;entryDx=0;entryDy=0;" edge="1" parent="1" source="RonNUOo7fwYPJ5fVtx0N-51" target="RonNUOo7fwYPJ5fVtx0N-60">
          <mxGeometry relative="1" as="geometry">
            <Array as="points">
              <mxPoint x="890" y="1060" />
              <mxPoint x="890" y="1320" />
            </Array>
          </mxGeometry>
        </mxCell>
        <mxCell id="RonNUOo7fwYPJ5fVtx0N-51" value="counter==2" style="rhombus;whiteSpace=wrap;html=1;" vertex="1" parent="1">
          <mxGeometry x="740" y="1020" width="80" height="80" as="geometry" />
        </mxCell>
        <mxCell id="RonNUOo7fwYPJ5fVtx0N-56" style="edgeStyle=orthogonalEdgeStyle;rounded=0;orthogonalLoop=1;jettySize=auto;html=1;exitX=0.5;exitY=1;exitDx=0;exitDy=0;entryX=0.5;entryY=0;entryDx=0;entryDy=0;" edge="1" parent="1" source="RonNUOo7fwYPJ5fVtx0N-53" target="RonNUOo7fwYPJ5fVtx0N-54">
          <mxGeometry relative="1" as="geometry" />
        </mxCell>
        <mxCell id="RonNUOo7fwYPJ5fVtx0N-53" value="find_number =true" style="rounded=0;whiteSpace=wrap;html=1;" vertex="1" parent="1">
          <mxGeometry x="640" y="1100" width="120" height="60" as="geometry" />
        </mxCell>
        <mxCell id="RonNUOo7fwYPJ5fVtx0N-57" style="edgeStyle=orthogonalEdgeStyle;rounded=0;orthogonalLoop=1;jettySize=auto;html=1;exitX=0.5;exitY=1;exitDx=0;exitDy=0;endArrow=none;endFill=0;" edge="1" parent="1" source="RonNUOo7fwYPJ5fVtx0N-54">
          <mxGeometry relative="1" as="geometry">
            <mxPoint x="630" y="970" as="targetPoint" />
            <Array as="points">
              <mxPoint x="700" y="1270" />
              <mxPoint x="630" y="1270" />
            </Array>
          </mxGeometry>
        </mxCell>
        <mxCell id="RonNUOo7fwYPJ5fVtx0N-54" value="counter=0" style="rounded=0;whiteSpace=wrap;html=1;" vertex="1" parent="1">
          <mxGeometry x="640" y="1190" width="120" height="60" as="geometry" />
        </mxCell>
        <mxCell id="RonNUOo7fwYPJ5fVtx0N-58" value="+" style="text;html=1;align=center;verticalAlign=middle;resizable=0;points=[];autosize=1;strokeColor=none;fillColor=none;" vertex="1" parent="1">
          <mxGeometry x="725" y="1025" width="30" height="30" as="geometry" />
        </mxCell>
        <mxCell id="RonNUOo7fwYPJ5fVtx0N-59" value="-" style="text;html=1;align=center;verticalAlign=middle;resizable=0;points=[];autosize=1;strokeColor=none;fillColor=none;" vertex="1" parent="1">
          <mxGeometry x="800" y="1025" width="30" height="30" as="geometry" />
        </mxCell>
        <mxCell id="RonNUOo7fwYPJ5fVtx0N-63" style="edgeStyle=orthogonalEdgeStyle;rounded=0;orthogonalLoop=1;jettySize=auto;html=1;exitX=0;exitY=0.5;exitDx=0;exitDy=0;entryX=0.5;entryY=0;entryDx=0;entryDy=0;" edge="1" parent="1" source="RonNUOo7fwYPJ5fVtx0N-60" target="RonNUOo7fwYPJ5fVtx0N-62">
          <mxGeometry relative="1" as="geometry" />
        </mxCell>
        <mxCell id="RonNUOo7fwYPJ5fVtx0N-66" style="edgeStyle=orthogonalEdgeStyle;rounded=0;orthogonalLoop=1;jettySize=auto;html=1;exitX=1;exitY=0.5;exitDx=0;exitDy=0;endArrow=none;endFill=0;" edge="1" parent="1" source="RonNUOo7fwYPJ5fVtx0N-60">
          <mxGeometry relative="1" as="geometry">
            <mxPoint x="630" y="1500" as="targetPoint" />
            <Array as="points">
              <mxPoint x="1030" y="1360" />
              <mxPoint x="1030" y="1500" />
            </Array>
          </mxGeometry>
        </mxCell>
        <mxCell id="RonNUOo7fwYPJ5fVtx0N-60" value="temp!=&#39;-&#39; &amp;&amp; temp!=&#39; &#39; &amp;&amp; temp!=&#39;\n&#39;" style="rhombus;whiteSpace=wrap;html=1;" vertex="1" parent="1">
          <mxGeometry x="780" y="1320" width="230" height="80" as="geometry" />
        </mxCell>
        <mxCell id="RonNUOo7fwYPJ5fVtx0N-64" style="edgeStyle=orthogonalEdgeStyle;rounded=0;orthogonalLoop=1;jettySize=auto;html=1;exitX=0.5;exitY=1;exitDx=0;exitDy=0;endArrow=none;endFill=0;" edge="1" parent="1" source="RonNUOo7fwYPJ5fVtx0N-62">
          <mxGeometry relative="1" as="geometry">
            <mxPoint x="630" y="1270" as="targetPoint" />
          </mxGeometry>
        </mxCell>
        <mxCell id="RonNUOo7fwYPJ5fVtx0N-62" value="number&amp;lt;&amp;lt;temp" style="rounded=0;whiteSpace=wrap;html=1;" vertex="1" parent="1">
          <mxGeometry x="650" y="1420" width="120" height="60" as="geometry" />
        </mxCell>
        <mxCell id="RonNUOo7fwYPJ5fVtx0N-65" value="+" style="text;html=1;align=center;verticalAlign=middle;resizable=0;points=[];autosize=1;strokeColor=none;fillColor=none;" vertex="1" parent="1">
          <mxGeometry x="755" y="1335" width="30" height="30" as="geometry" />
        </mxCell>
        <mxCell id="RonNUOo7fwYPJ5fVtx0N-67" value="-" style="text;html=1;align=center;verticalAlign=middle;resizable=0;points=[];autosize=1;strokeColor=none;fillColor=none;" vertex="1" parent="1">
          <mxGeometry x="980" y="1330" width="30" height="30" as="geometry" />
        </mxCell>
        <mxCell id="RonNUOo7fwYPJ5fVtx0N-71" style="edgeStyle=orthogonalEdgeStyle;rounded=0;orthogonalLoop=1;jettySize=auto;html=1;exitX=0;exitY=0.5;exitDx=0;exitDy=0;entryX=0.5;entryY=0;entryDx=0;entryDy=0;" edge="1" parent="1" source="RonNUOo7fwYPJ5fVtx0N-68" target="RonNUOo7fwYPJ5fVtx0N-70">
          <mxGeometry relative="1" as="geometry" />
        </mxCell>
        <mxCell id="RonNUOo7fwYPJ5fVtx0N-82" style="edgeStyle=orthogonalEdgeStyle;rounded=0;orthogonalLoop=1;jettySize=auto;html=1;exitX=1;exitY=0.5;exitDx=0;exitDy=0;entryX=0.5;entryY=0;entryDx=0;entryDy=0;" edge="1" parent="1" source="RonNUOo7fwYPJ5fVtx0N-68" target="RonNUOo7fwYPJ5fVtx0N-81">
          <mxGeometry relative="1" as="geometry" />
        </mxCell>
        <mxCell id="RonNUOo7fwYPJ5fVtx0N-68" value="temp ==&#39;\f&#39;" style="rhombus;whiteSpace=wrap;html=1;" vertex="1" parent="1">
          <mxGeometry x="1161" y="755" width="80" height="80" as="geometry" />
        </mxCell>
        <mxCell id="RonNUOo7fwYPJ5fVtx0N-73" style="edgeStyle=orthogonalEdgeStyle;rounded=0;orthogonalLoop=1;jettySize=auto;html=1;exitX=0.5;exitY=1;exitDx=0;exitDy=0;entryX=0.5;entryY=0;entryDx=0;entryDy=0;" edge="1" parent="1" source="RonNUOo7fwYPJ5fVtx0N-70" target="RonNUOo7fwYPJ5fVtx0N-72">
          <mxGeometry relative="1" as="geometry" />
        </mxCell>
        <mxCell id="RonNUOo7fwYPJ5fVtx0N-70" value="in&lt;&lt;&#39; &#39;" style="rounded=0;whiteSpace=wrap;html=1;" vertex="1" parent="1">
          <mxGeometry x="1076" y="885" width="120" height="60" as="geometry" />
        </mxCell>
        <mxCell id="RonNUOo7fwYPJ5fVtx0N-75" style="edgeStyle=orthogonalEdgeStyle;rounded=0;orthogonalLoop=1;jettySize=auto;html=1;exitX=0.5;exitY=1;exitDx=0;exitDy=0;entryX=0.5;entryY=0;entryDx=0;entryDy=0;" edge="1" parent="1" source="RonNUOo7fwYPJ5fVtx0N-72" target="RonNUOo7fwYPJ5fVtx0N-74">
          <mxGeometry relative="1" as="geometry" />
        </mxCell>
        <mxCell id="RonNUOo7fwYPJ5fVtx0N-72" value="in&amp;lt;&amp;lt;number.rdbuf()" style="rounded=0;whiteSpace=wrap;html=1;" vertex="1" parent="1">
          <mxGeometry x="1076" y="965" width="120" height="60" as="geometry" />
        </mxCell>
        <mxCell id="RonNUOo7fwYPJ5fVtx0N-77" style="edgeStyle=orthogonalEdgeStyle;rounded=0;orthogonalLoop=1;jettySize=auto;html=1;exitX=0.5;exitY=1;exitDx=0;exitDy=0;entryX=0.5;entryY=0;entryDx=0;entryDy=0;" edge="1" parent="1" source="RonNUOo7fwYPJ5fVtx0N-74" target="RonNUOo7fwYPJ5fVtx0N-76">
          <mxGeometry relative="1" as="geometry" />
        </mxCell>
        <mxCell id="RonNUOo7fwYPJ5fVtx0N-74" value="number.flush()" style="shape=process;whiteSpace=wrap;html=1;backgroundOutline=1;" vertex="1" parent="1">
          <mxGeometry x="1076" y="1040" width="120" height="60" as="geometry" />
        </mxCell>
        <mxCell id="RonNUOo7fwYPJ5fVtx0N-79" style="edgeStyle=orthogonalEdgeStyle;rounded=0;orthogonalLoop=1;jettySize=auto;html=1;exitX=0.5;exitY=1;exitDx=0;exitDy=0;entryX=0.5;entryY=0;entryDx=0;entryDy=0;" edge="1" parent="1" source="RonNUOo7fwYPJ5fVtx0N-76" target="RonNUOo7fwYPJ5fVtx0N-78">
          <mxGeometry relative="1" as="geometry" />
        </mxCell>
        <mxCell id="RonNUOo7fwYPJ5fVtx0N-76" value="in&lt;&lt;&#39;\n&#39;" style="rounded=0;whiteSpace=wrap;html=1;" vertex="1" parent="1">
          <mxGeometry x="1076" y="1120" width="120" height="60" as="geometry" />
        </mxCell>
        <mxCell id="RonNUOo7fwYPJ5fVtx0N-80" style="edgeStyle=orthogonalEdgeStyle;rounded=0;orthogonalLoop=1;jettySize=auto;html=1;exitX=0.5;exitY=1;exitDx=0;exitDy=0;endArrow=none;endFill=0;" edge="1" parent="1" source="RonNUOo7fwYPJ5fVtx0N-78">
          <mxGeometry relative="1" as="geometry">
            <mxPoint x="1030" y="1500" as="targetPoint" />
            <Array as="points">
              <mxPoint x="1136" y="1500" />
            </Array>
          </mxGeometry>
        </mxCell>
        <mxCell id="RonNUOo7fwYPJ5fVtx0N-78" value="find_number=false" style="rounded=0;whiteSpace=wrap;html=1;" vertex="1" parent="1">
          <mxGeometry x="1076" y="1200" width="120" height="60" as="geometry" />
        </mxCell>
        <mxCell id="RonNUOo7fwYPJ5fVtx0N-83" style="edgeStyle=orthogonalEdgeStyle;rounded=0;orthogonalLoop=1;jettySize=auto;html=1;exitX=0.5;exitY=1;exitDx=0;exitDy=0;" edge="1" parent="1" source="RonNUOo7fwYPJ5fVtx0N-81">
          <mxGeometry relative="1" as="geometry">
            <mxPoint x="880" y="500" as="targetPoint" />
            <Array as="points">
              <mxPoint x="1301" y="970" />
              <mxPoint x="1440" y="970" />
              <mxPoint x="1440" y="500" />
            </Array>
          </mxGeometry>
        </mxCell>
        <mxCell id="RonNUOo7fwYPJ5fVtx0N-81" value="in&amp;lt;&amp;lt;temp" style="rounded=0;whiteSpace=wrap;html=1;" vertex="1" parent="1">
          <mxGeometry x="1241" y="890" width="120" height="60" as="geometry" />
        </mxCell>
        <mxCell id="RonNUOo7fwYPJ5fVtx0N-84" value="+" style="text;html=1;align=center;verticalAlign=middle;resizable=0;points=[];autosize=1;strokeColor=none;fillColor=none;" vertex="1" parent="1">
          <mxGeometry x="1135" y="765" width="30" height="30" as="geometry" />
        </mxCell>
        <mxCell id="RonNUOo7fwYPJ5fVtx0N-85" value="-" style="text;html=1;align=center;verticalAlign=middle;resizable=0;points=[];autosize=1;strokeColor=none;fillColor=none;" vertex="1" parent="1">
          <mxGeometry x="1226" y="765" width="30" height="30" as="geometry" />
        </mxCell>
      </root>
    </mxGraphModel>
  </diagram>
  <diagram id="xy9EQzsjfzAQaH8f2spZ" name="Страница 5">
    <mxGraphModel dx="1434" dy="782" grid="1" gridSize="10" guides="1" tooltips="1" connect="1" arrows="1" fold="1" page="1" pageScale="1" pageWidth="827" pageHeight="1169" math="0" shadow="0">
      <root>
        <mxCell id="0" />
        <mxCell id="1" parent="0" />
        <mxCell id="xQCHg-d75RNBQmj4cP7U-1" value="char encrypt(const char ch,int&amp;amp; number,const string&amp;amp; key)" style="text;html=1;align=center;verticalAlign=middle;resizable=0;points=[];autosize=1;strokeColor=none;fillColor=none;" vertex="1" parent="1">
          <mxGeometry x="50" y="135" width="340" height="30" as="geometry" />
        </mxCell>
        <mxCell id="xQCHg-d75RNBQmj4cP7U-4" style="edgeStyle=orthogonalEdgeStyle;rounded=0;orthogonalLoop=1;jettySize=auto;html=1;exitX=0.5;exitY=1;exitDx=0;exitDy=0;entryX=0.452;entryY=-0.033;entryDx=0;entryDy=0;entryPerimeter=0;" edge="1" parent="1" source="xQCHg-d75RNBQmj4cP7U-2" target="xQCHg-d75RNBQmj4cP7U-3">
          <mxGeometry relative="1" as="geometry" />
        </mxCell>
        <mxCell id="xQCHg-d75RNBQmj4cP7U-2" value="Начало" style="ellipse;whiteSpace=wrap;html=1;" vertex="1" parent="1">
          <mxGeometry x="354" y="190" width="120" height="80" as="geometry" />
        </mxCell>
        <mxCell id="xQCHg-d75RNBQmj4cP7U-6" style="edgeStyle=orthogonalEdgeStyle;rounded=0;orthogonalLoop=1;jettySize=auto;html=1;exitX=0.5;exitY=1;exitDx=0;exitDy=0;" edge="1" parent="1" source="xQCHg-d75RNBQmj4cP7U-3" target="xQCHg-d75RNBQmj4cP7U-5">
          <mxGeometry relative="1" as="geometry" />
        </mxCell>
        <mxCell id="xQCHg-d75RNBQmj4cP7U-3" value="char temp = ch^key[number]" style="rounded=0;whiteSpace=wrap;html=1;" vertex="1" parent="1">
          <mxGeometry x="330" y="310" width="186" height="60" as="geometry" />
        </mxCell>
        <mxCell id="xQCHg-d75RNBQmj4cP7U-8" style="edgeStyle=orthogonalEdgeStyle;rounded=0;orthogonalLoop=1;jettySize=auto;html=1;exitX=0.5;exitY=1;exitDx=0;exitDy=0;" edge="1" parent="1" source="xQCHg-d75RNBQmj4cP7U-5" target="xQCHg-d75RNBQmj4cP7U-7">
          <mxGeometry relative="1" as="geometry" />
        </mxCell>
        <mxCell id="xQCHg-d75RNBQmj4cP7U-5" value="number=number++%key.size()" style="rounded=0;whiteSpace=wrap;html=1;" vertex="1" parent="1">
          <mxGeometry x="319.5" y="400" width="207" height="60" as="geometry" />
        </mxCell>
        <mxCell id="xQCHg-d75RNBQmj4cP7U-7" value="return temp" style="ellipse;whiteSpace=wrap;html=1;" vertex="1" parent="1">
          <mxGeometry x="363" y="500" width="120" height="80" as="geometry" />
        </mxCell>
      </root>
    </mxGraphModel>
  </diagram>
  <diagram id="dmpyD4kXTfZNY3Xuo34Z" name="Страница 6">
    <mxGraphModel dx="1687" dy="920" grid="1" gridSize="10" guides="1" tooltips="1" connect="1" arrows="1" fold="1" page="1" pageScale="1" pageWidth="827" pageHeight="1169" math="0" shadow="0">
      <root>
        <mxCell id="0" />
        <mxCell id="1" parent="0" />
        <mxCell id="ruOy7Xie8wh_I1Z_6hHl-2" value="int main(int argc,char *argv[])" style="text;html=1;align=center;verticalAlign=middle;resizable=0;points=[];autosize=1;strokeColor=none;fillColor=none;" vertex="1" parent="1">
          <mxGeometry x="90" y="125" width="180" height="30" as="geometry" />
        </mxCell>
        <mxCell id="ruOy7Xie8wh_I1Z_6hHl-5" style="edgeStyle=orthogonalEdgeStyle;rounded=0;orthogonalLoop=1;jettySize=auto;html=1;exitX=0.5;exitY=1;exitDx=0;exitDy=0;entryX=0.5;entryY=0;entryDx=0;entryDy=0;" edge="1" parent="1" source="ruOy7Xie8wh_I1Z_6hHl-3" target="ruOy7Xie8wh_I1Z_6hHl-4">
          <mxGeometry relative="1" as="geometry" />
        </mxCell>
        <mxCell id="ruOy7Xie8wh_I1Z_6hHl-3" value="Начало" style="ellipse;whiteSpace=wrap;html=1;" vertex="1" parent="1">
          <mxGeometry x="294" y="180" width="120" height="80" as="geometry" />
        </mxCell>
        <mxCell id="ruOy7Xie8wh_I1Z_6hHl-7" style="edgeStyle=orthogonalEdgeStyle;rounded=0;orthogonalLoop=1;jettySize=auto;html=1;exitX=0;exitY=0.5;exitDx=0;exitDy=0;entryX=0.5;entryY=0;entryDx=0;entryDy=0;" edge="1" parent="1" source="ruOy7Xie8wh_I1Z_6hHl-4" target="ruOy7Xie8wh_I1Z_6hHl-6">
          <mxGeometry relative="1" as="geometry" />
        </mxCell>
        <mxCell id="ruOy7Xie8wh_I1Z_6hHl-10" style="edgeStyle=orthogonalEdgeStyle;rounded=0;orthogonalLoop=1;jettySize=auto;html=1;exitX=1;exitY=0.5;exitDx=0;exitDy=0;entryX=0.5;entryY=0;entryDx=0;entryDy=0;" edge="1" parent="1" source="ruOy7Xie8wh_I1Z_6hHl-4" target="ruOy7Xie8wh_I1Z_6hHl-11">
          <mxGeometry relative="1" as="geometry">
            <mxPoint x="360" y="590" as="targetPoint" />
            <Array as="points">
              <mxPoint x="414" y="320" />
              <mxPoint x="414" y="470" />
              <mxPoint x="354" y="470" />
            </Array>
          </mxGeometry>
        </mxCell>
        <mxCell id="ruOy7Xie8wh_I1Z_6hHl-4" value="argc!=3" style="rhombus;whiteSpace=wrap;html=1;" vertex="1" parent="1">
          <mxGeometry x="314" y="280" width="80" height="80" as="geometry" />
        </mxCell>
        <mxCell id="ruOy7Xie8wh_I1Z_6hHl-6" value="Конец" style="ellipse;whiteSpace=wrap;html=1;" vertex="1" parent="1">
          <mxGeometry x="230" y="390" width="120" height="80" as="geometry" />
        </mxCell>
        <mxCell id="ruOy7Xie8wh_I1Z_6hHl-8" value="+" style="text;html=1;align=center;verticalAlign=middle;resizable=0;points=[];autosize=1;strokeColor=none;fillColor=none;" vertex="1" parent="1">
          <mxGeometry x="295" y="295" width="30" height="30" as="geometry" />
        </mxCell>
        <mxCell id="ruOy7Xie8wh_I1Z_6hHl-9" value="-" style="text;html=1;align=center;verticalAlign=middle;resizable=0;points=[];autosize=1;strokeColor=none;fillColor=none;" vertex="1" parent="1">
          <mxGeometry x="384" y="295" width="30" height="30" as="geometry" />
        </mxCell>
        <mxCell id="ruOy7Xie8wh_I1Z_6hHl-15" style="edgeStyle=orthogonalEdgeStyle;rounded=0;orthogonalLoop=1;jettySize=auto;html=1;exitX=0.5;exitY=1;exitDx=0;exitDy=0;entryX=0.5;entryY=0;entryDx=0;entryDy=0;" edge="1" parent="1" source="ruOy7Xie8wh_I1Z_6hHl-11" target="ruOy7Xie8wh_I1Z_6hHl-12">
          <mxGeometry relative="1" as="geometry" />
        </mxCell>
        <mxCell id="ruOy7Xie8wh_I1Z_6hHl-11" value="ifstream in{argv[1]}" style="rounded=0;whiteSpace=wrap;html=1;" vertex="1" parent="1">
          <mxGeometry x="294" y="500" width="120" height="60" as="geometry" />
        </mxCell>
        <mxCell id="ruOy7Xie8wh_I1Z_6hHl-14" style="edgeStyle=orthogonalEdgeStyle;rounded=0;orthogonalLoop=1;jettySize=auto;html=1;exitX=0;exitY=0.5;exitDx=0;exitDy=0;entryX=0.5;entryY=0;entryDx=0;entryDy=0;" edge="1" parent="1" source="ruOy7Xie8wh_I1Z_6hHl-12" target="ruOy7Xie8wh_I1Z_6hHl-13">
          <mxGeometry relative="1" as="geometry" />
        </mxCell>
        <mxCell id="ruOy7Xie8wh_I1Z_6hHl-18" style="edgeStyle=orthogonalEdgeStyle;rounded=0;orthogonalLoop=1;jettySize=auto;html=1;exitX=1;exitY=0.5;exitDx=0;exitDy=0;entryX=0.47;entryY=-0.006;entryDx=0;entryDy=0;entryPerimeter=0;" edge="1" parent="1" source="ruOy7Xie8wh_I1Z_6hHl-12" target="ruOy7Xie8wh_I1Z_6hHl-16">
          <mxGeometry relative="1" as="geometry">
            <Array as="points">
              <mxPoint x="414" y="630" />
              <mxPoint x="414" y="780" />
              <mxPoint x="365" y="780" />
            </Array>
          </mxGeometry>
        </mxCell>
        <mxCell id="ruOy7Xie8wh_I1Z_6hHl-12" value="!in" style="rhombus;whiteSpace=wrap;html=1;" vertex="1" parent="1">
          <mxGeometry x="314" y="590" width="80" height="80" as="geometry" />
        </mxCell>
        <mxCell id="ruOy7Xie8wh_I1Z_6hHl-13" value="Конец" style="ellipse;whiteSpace=wrap;html=1;" vertex="1" parent="1">
          <mxGeometry x="230" y="690" width="120" height="80" as="geometry" />
        </mxCell>
        <mxCell id="ruOy7Xie8wh_I1Z_6hHl-20" style="edgeStyle=orthogonalEdgeStyle;rounded=0;orthogonalLoop=1;jettySize=auto;html=1;exitX=0.5;exitY=1;exitDx=0;exitDy=0;entryX=0.5;entryY=0;entryDx=0;entryDy=0;" edge="1" parent="1" source="ruOy7Xie8wh_I1Z_6hHl-16" target="ruOy7Xie8wh_I1Z_6hHl-19">
          <mxGeometry relative="1" as="geometry" />
        </mxCell>
        <mxCell id="ruOy7Xie8wh_I1Z_6hHl-16" value="ofstream out{&quot;result2.txt&quot;}" style="rounded=0;whiteSpace=wrap;html=1;" vertex="1" parent="1">
          <mxGeometry x="290" y="820" width="160" height="60" as="geometry" />
        </mxCell>
        <mxCell id="ruOy7Xie8wh_I1Z_6hHl-22" style="edgeStyle=orthogonalEdgeStyle;rounded=0;orthogonalLoop=1;jettySize=auto;html=1;exitX=0;exitY=0.5;exitDx=0;exitDy=0;entryX=0.5;entryY=0;entryDx=0;entryDy=0;" edge="1" parent="1" source="ruOy7Xie8wh_I1Z_6hHl-19" target="ruOy7Xie8wh_I1Z_6hHl-21">
          <mxGeometry relative="1" as="geometry" />
        </mxCell>
        <mxCell id="ruOy7Xie8wh_I1Z_6hHl-28" style="edgeStyle=orthogonalEdgeStyle;rounded=0;orthogonalLoop=1;jettySize=auto;html=1;exitX=1;exitY=0.5;exitDx=0;exitDy=0;entryX=0.5;entryY=0;entryDx=0;entryDy=0;" edge="1" parent="1" source="ruOy7Xie8wh_I1Z_6hHl-19" target="ruOy7Xie8wh_I1Z_6hHl-27">
          <mxGeometry relative="1" as="geometry" />
        </mxCell>
        <mxCell id="ruOy7Xie8wh_I1Z_6hHl-19" value="!out" style="rhombus;whiteSpace=wrap;html=1;" vertex="1" parent="1">
          <mxGeometry x="330" y="910" width="80" height="80" as="geometry" />
        </mxCell>
        <mxCell id="ruOy7Xie8wh_I1Z_6hHl-21" value="Конец" style="ellipse;whiteSpace=wrap;html=1;" vertex="1" parent="1">
          <mxGeometry x="230" y="1000" width="120" height="80" as="geometry" />
        </mxCell>
        <mxCell id="ruOy7Xie8wh_I1Z_6hHl-23" value="+" style="text;html=1;align=center;verticalAlign=middle;resizable=0;points=[];autosize=1;strokeColor=none;fillColor=none;" vertex="1" parent="1">
          <mxGeometry x="295" y="605" width="30" height="30" as="geometry" />
        </mxCell>
        <mxCell id="ruOy7Xie8wh_I1Z_6hHl-24" value="-" style="text;html=1;align=center;verticalAlign=middle;resizable=0;points=[];autosize=1;strokeColor=none;fillColor=none;" vertex="1" parent="1">
          <mxGeometry x="384" y="605" width="30" height="30" as="geometry" />
        </mxCell>
        <mxCell id="ruOy7Xie8wh_I1Z_6hHl-32" style="edgeStyle=orthogonalEdgeStyle;rounded=0;orthogonalLoop=1;jettySize=auto;html=1;exitX=0.5;exitY=1;exitDx=0;exitDy=0;entryX=0.5;entryY=0;entryDx=0;entryDy=0;" edge="1" parent="1" source="ruOy7Xie8wh_I1Z_6hHl-27" target="ruOy7Xie8wh_I1Z_6hHl-31">
          <mxGeometry relative="1" as="geometry" />
        </mxCell>
        <mxCell id="ruOy7Xie8wh_I1Z_6hHl-27" value="char temp" style="shape=parallelogram;perimeter=parallelogramPerimeter;whiteSpace=wrap;html=1;fixedSize=1;" vertex="1" parent="1">
          <mxGeometry x="715" y="320" width="120" height="60" as="geometry" />
        </mxCell>
        <mxCell id="ruOy7Xie8wh_I1Z_6hHl-29" value="+" style="text;html=1;align=center;verticalAlign=middle;resizable=0;points=[];autosize=1;strokeColor=none;fillColor=none;" vertex="1" parent="1">
          <mxGeometry x="314" y="915" width="30" height="30" as="geometry" />
        </mxCell>
        <mxCell id="ruOy7Xie8wh_I1Z_6hHl-30" value="-" style="text;html=1;align=center;verticalAlign=middle;resizable=0;points=[];autosize=1;strokeColor=none;fillColor=none;" vertex="1" parent="1">
          <mxGeometry x="394" y="915" width="30" height="30" as="geometry" />
        </mxCell>
        <mxCell id="ruOy7Xie8wh_I1Z_6hHl-34" style="edgeStyle=orthogonalEdgeStyle;rounded=0;orthogonalLoop=1;jettySize=auto;html=1;exitX=0.5;exitY=1;exitDx=0;exitDy=0;entryX=0.5;entryY=0;entryDx=0;entryDy=0;" edge="1" parent="1" source="ruOy7Xie8wh_I1Z_6hHl-31" target="ruOy7Xie8wh_I1Z_6hHl-33">
          <mxGeometry relative="1" as="geometry" />
        </mxCell>
        <mxCell id="ruOy7Xie8wh_I1Z_6hHl-31" value="int counter{0}" style="rounded=0;whiteSpace=wrap;html=1;" vertex="1" parent="1">
          <mxGeometry x="715" y="400" width="120" height="60" as="geometry" />
        </mxCell>
        <mxCell id="ruOy7Xie8wh_I1Z_6hHl-36" style="edgeStyle=orthogonalEdgeStyle;rounded=0;orthogonalLoop=1;jettySize=auto;html=1;exitX=0.5;exitY=1;exitDx=0;exitDy=0;entryX=0.5;entryY=0;entryDx=0;entryDy=0;" edge="1" parent="1" source="ruOy7Xie8wh_I1Z_6hHl-33" target="ruOy7Xie8wh_I1Z_6hHl-35">
          <mxGeometry relative="1" as="geometry" />
        </mxCell>
        <mxCell id="ruOy7Xie8wh_I1Z_6hHl-33" value="string key {argv[2]}" style="rounded=0;whiteSpace=wrap;html=1;" vertex="1" parent="1">
          <mxGeometry x="715" y="480" width="120" height="60" as="geometry" />
        </mxCell>
        <mxCell id="ruOy7Xie8wh_I1Z_6hHl-40" style="edgeStyle=orthogonalEdgeStyle;rounded=0;orthogonalLoop=1;jettySize=auto;html=1;exitX=0.5;exitY=1;exitDx=0;exitDy=0;entryX=0.5;entryY=0;entryDx=0;entryDy=0;" edge="1" parent="1" source="ruOy7Xie8wh_I1Z_6hHl-35" target="ruOy7Xie8wh_I1Z_6hHl-37">
          <mxGeometry relative="1" as="geometry" />
        </mxCell>
        <mxCell id="ruOy7Xie8wh_I1Z_6hHl-45" style="edgeStyle=orthogonalEdgeStyle;rounded=0;orthogonalLoop=1;jettySize=auto;html=1;exitX=1;exitY=0.5;exitDx=0;exitDy=0;" edge="1" parent="1" source="ruOy7Xie8wh_I1Z_6hHl-35" target="ruOy7Xie8wh_I1Z_6hHl-44">
          <mxGeometry relative="1" as="geometry" />
        </mxCell>
        <mxCell id="ruOy7Xie8wh_I1Z_6hHl-35" value="in.get(temp)" style="rhombus;whiteSpace=wrap;html=1;" vertex="1" parent="1">
          <mxGeometry x="735" y="570" width="80" height="80" as="geometry" />
        </mxCell>
        <mxCell id="ruOy7Xie8wh_I1Z_6hHl-41" style="edgeStyle=orthogonalEdgeStyle;rounded=0;orthogonalLoop=1;jettySize=auto;html=1;exitX=0.5;exitY=1;exitDx=0;exitDy=0;" edge="1" parent="1" source="ruOy7Xie8wh_I1Z_6hHl-37">
          <mxGeometry relative="1" as="geometry">
            <mxPoint x="775.1379310344828" y="550" as="targetPoint" />
            <Array as="points">
              <mxPoint x="775" y="780" />
              <mxPoint x="620" y="780" />
              <mxPoint x="620" y="550" />
            </Array>
          </mxGeometry>
        </mxCell>
        <mxCell id="ruOy7Xie8wh_I1Z_6hHl-37" value="out&amp;lt;&amp;lt;encrypt(temp,counter,key)" style="rounded=0;whiteSpace=wrap;html=1;" vertex="1" parent="1">
          <mxGeometry x="670" y="700" width="210" height="60" as="geometry" />
        </mxCell>
        <mxCell id="ruOy7Xie8wh_I1Z_6hHl-42" value="+" style="text;html=1;align=center;verticalAlign=middle;resizable=0;points=[];autosize=1;strokeColor=none;fillColor=none;" vertex="1" parent="1">
          <mxGeometry x="750" y="640" width="30" height="30" as="geometry" />
        </mxCell>
        <mxCell id="ruOy7Xie8wh_I1Z_6hHl-43" value="-" style="text;html=1;align=center;verticalAlign=middle;resizable=0;points=[];autosize=1;strokeColor=none;fillColor=none;" vertex="1" parent="1">
          <mxGeometry x="797" y="575" width="30" height="30" as="geometry" />
        </mxCell>
        <mxCell id="ruOy7Xie8wh_I1Z_6hHl-44" value="Конец" style="ellipse;whiteSpace=wrap;html=1;" vertex="1" parent="1">
          <mxGeometry x="920" y="570" width="120" height="80" as="geometry" />
        </mxCell>
      </root>
    </mxGraphModel>
  </diagram>
</mxfile>
